<?xml version="1.0" standalone="no"?>
<!DOCTYPE svg PUBLIC "-//W3C//DTD SVG 20010904//EN"
 "http://www.w3.org/TR/2001/REC-SVG-20010904/DTD/svg10.dtd">
<svg version="1.0" xmlns="http://www.w3.org/2000/svg"
 width="1996.000000pt" height="514.000000pt" viewBox="0 0 1996.000000 514.000000"
 preserveAspectRatio="xMidYMid meet">

<g transform="translate(0.000000,514.000000) scale(0.100000,-0.100000)"
fill="#69CACC" stroke="none">
<path d="M9150 2680 l0 -1720 275 0 275 0 0 718 c0 604 3 727 15 781 67 283
304 429 596 367 170 -36 272 -137 326 -321 16 -54 18 -132 21 -802 l3 -743
269 0 270 0 0 799 c0 870 -1 888 -58 1047 -45 128 -96 210 -191 305 -131 130
-271 195 -476 219 -276 33 -569 -59 -728 -229 l-47 -50 0 674 0 675 -275 0
-275 0 0 -1720z"/>
<path d="M14030 2680 l0 -1720 275 0 275 0 0 323 0 322 143 149 142 149 339
-472 338 -471 335 0 c265 0 333 3 327 13 -4 6 -221 306 -482 666 l-474 653
104 107 c147 150 766 789 807 834 l35 37 -365 -1 -364 -1 -440 -465 -440 -465
-3 1031 -2 1031 -275 0 -275 0 0 -1720z"/>
<path d="M7585 3329 c-491 -72 -873 -439 -974 -937 -88 -432 30 -860 317
-1155 103 -105 197 -172 336 -238 368 -176 833 -146 1164 75 141 94 285 264
362 429 51 109 57 132 33 141 -75 30 -456 166 -458 164 -1 -2 -18 -37 -37 -78
-65 -141 -187 -255 -333 -310 -82 -31 -269 -39 -369 -16 -175 41 -329 163
-412 328 -13 26 -36 86 -50 135 -24 79 -27 104 -27 243 0 128 3 169 21 235 36
131 84 218 171 305 124 125 261 182 436 183 275 1 466 -132 554 -384 l16 -46
238 87 c131 49 241 91 244 94 17 17 -62 201 -131 304 -85 128 -238 262 -384
336 -81 41 -218 84 -322 101 -102 16 -297 18 -395 4z"/>
<path d="M12385 3329 c-203 -29 -396 -119 -538 -249 -105 -96 -198 -250 -232
-388 -28 -110 -42 -100 215 -159 124 -28 234 -52 245 -52 18 -1 23 9 33 57 26
124 106 235 213 291 84 46 148 61 254 61 266 0 422 -117 433 -325 3 -71 1 -84
-20 -115 -13 -19 -40 -43 -61 -53 -24 -12 -164 -38 -395 -73 -196 -30 -397
-66 -446 -79 -275 -78 -471 -267 -521 -501 -8 -38 -15 -110 -15 -160 -1 -434
389 -742 879 -693 57 5 120 17 139 24 19 8 44 15 55 15 35 0 182 77 249 130
59 47 158 155 158 172 0 5 4 8 8 8 5 0 12 -55 15 -122 3 -68 9 -131 12 -140 7
-17 28 -18 261 -18 l254 0 -6 47 c-3 27 -8 55 -12 63 -3 8 -9 368 -12 800 -6
767 -7 787 -28 865 -108 395 -447 609 -957 604 -66 -1 -147 -5 -180 -10z m625
-1414 c0 -359 -161 -557 -487 -596 -194 -24 -337 40 -401 179 -21 47 -24 64
-20 136 5 98 28 146 94 204 71 64 129 80 469 132 171 27 318 49 328 49 15 1
17 -10 17 -104z"/>
<path d="M18739 3325 c-354 -59 -629 -274 -731 -571 -16 -47 -30 -104 -31
-126 l-2 -42 230 -52 c127 -29 238 -53 247 -54 12 0 20 14 28 55 36 173 173
309 348 346 80 16 251 6 325 -20 146 -51 229 -160 231 -306 1 -53 -4 -78 -18
-102 -37 -61 -65 -69 -477 -132 -475 -74 -563 -100 -717 -216 -248 -186 -322
-529 -177 -823 108 -218 335 -363 611 -392 302 -31 592 79 759 289 l50 62 7
-98 c4 -54 10 -117 13 -141 l6 -42 256 0 255 0 -7 38 c-4 20 -10 395 -14 832
l-7 795 -27 99 c-94 348 -344 550 -750 605 -103 14 -313 12 -408 -4z m648
-1427 c-11 -207 -55 -333 -149 -428 -86 -87 -186 -132 -338 -150 -210 -26
-366 52 -415 206 -34 109 1 245 80 311 69 60 140 82 376 118 123 18 265 40
314 48 50 8 101 15 114 16 l24 1 -6 -122z"/>
<path d="M17505 3290 c-86 -14 -201 -55 -275 -98 -83 -48 -187 -152 -227 -227
l-32 -60 -1 183 0 182 -270 0 -270 0 0 -1155 0 -1155 274 0 275 0 4 633 c4
709 4 705 76 853 68 136 165 217 321 266 66 20 95 23 243 23 l167 0 0 272 c0
185 -3 274 -11 279 -18 11 -210 14 -274 4z"/>
</g>
</svg>
