<?xml version="1.0" standalone="no"?>
<!DOCTYPE svg PUBLIC "-//W3C//DTD SVG 20010904//EN"
 "http://www.w3.org/TR/2001/REC-SVG-20010904/DTD/svg10.dtd">
<svg version="1.0" xmlns="http://www.w3.org/2000/svg"
 width="2560.000000pt" height="1069.000000pt" viewBox="0 0 2560.000000 1069.000000"
 preserveAspectRatio="xMidYMid meet">

<g transform="translate(0.000000,1069.000000) scale(0.100000,-0.100000)"
fill="" stroke="none">
<path d="M19795 10679 c-169 -22 -341 -92 -457 -184 -108 -87 -204 -244 -250
-410 -19 -70 -22 -107 -22 -285 -1 -245 14 -322 95 -489 44 -90 63 -117 138
-192 75 -75 101 -94 192 -137 157 -77 230 -93 444 -99 206 -5 317 11 460 66
340 131 523 459 502 901 -21 454 -244 728 -663 815 -94 20 -340 28 -439 14z"/>
<path d="M5255 10674 c-11 -2 -45 -9 -75 -15 -30 -6 -98 -31 -150 -56 l-95
-45 -525 -524 -525 -524 611 -611 610 -610 65 17 c99 28 309 25 413 -4 280
-80 498 -299 578 -578 30 -106 32 -303 4 -413 l-19 -73 589 -588 589 -589 75
21 c105 28 285 28 395 -1 366 -97 615 -417 616 -791 0 -177 -40 -317 -131
-452 -146 -218 -347 -341 -606 -370 -86 -10 -117 -9 -202 5 -190 31 -329 102
-463 237 -216 217 -295 546 -198 828 l19 57 -550 550 -550 550 0 -1446 0
-1447 76 -47 c411 -256 508 -822 207 -1203 -324 -408 -938 -417 -1274 -18 -74
88 -142 225 -170 341 -28 119 -23 313 11 420 66 210 215 392 401 490 l69 36 0
1464 0 1464 -69 36 c-146 77 -272 207 -347 360 -67 137 -79 194 -78 370 1 144
12 211 48 295 4 11 -170 191 -596 618 l-603 602 -1641 -1642 -1641 -1643 -41
-85 c-59 -122 -75 -200 -69 -340 6 -137 38 -239 111 -348 67 -99 4799 -4825
4878 -4870 215 -126 485 -128 698 -5 55 31 444 416 2443 2413 1693 1690 2391
2394 2421 2440 140 210 154 456 40 690 l-46 95 -2387 2388 c-1794 1795 -2404
2400 -2458 2437 -40 26 -98 58 -130 70 -100 38 -254 58 -328 44z"/>
<path d="M22822 9609 c-55 -494 -193 -884 -397 -1122 -194 -227 -519 -380
-897 -423 l-58 -7 0 -453 0 -454 374 0 c341 0 376 -2 395 -17 l21 -18 3 -1505
c4 -1624 3 -1593 58 -1846 133 -616 505 -923 1221 -1010 162 -20 547 -23 698
-5 434 50 910 184 1301 365 l56 26 -134 438 c-74 240 -138 441 -143 445 -4 5
-59 -8 -121 -28 -436 -141 -869 -161 -1103 -50 -145 69 -230 201 -273 427 -14
72 -17 255 -20 1431 l-4 1347 761 0 760 0 0 510 0 510 -744 0 -745 0 -15 22
c-14 20 -16 110 -16 775 l0 753 -483 0 -483 0 -12 -111z"/>
<path d="M15015 8053 c-444 -27 -786 -111 -1110 -273 -204 -102 -320 -185
-470 -335 -264 -264 -409 -550 -486 -955 -31 -163 -38 -527 -15 -690 58 -397
203 -697 460 -956 117 -117 278 -238 364 -273 17 -7 32 -16 31 -20 0 -3 -46
-46 -101 -96 -182 -163 -573 -558 -637 -644 -130 -175 -185 -326 -183 -506 2
-287 129 -498 376 -626 l65 -33 -132 -136 c-299 -305 -402 -511 -423 -837 -17
-266 58 -519 211 -710 222 -277 630 -462 1227 -557 511 -81 1244 -98 1768 -41
1207 132 1943 637 2111 1451 27 130 37 437 19 597 -33 301 -133 530 -310 708
-292 296 -774 436 -1760 514 -228 17 -797 55 -1332 87 -243 14 -378 26 -378
33 1 19 327 530 337 528 5 -1 55 -11 109 -22 232 -47 333 -56 679 -56 354 0
433 7 690 62 277 58 600 195 805 340 117 84 305 270 384 381 107 151 201 361
250 557 50 203 62 511 27 715 -42 246 -155 500 -316 712 l-36 47 43 5 c44 6
849 66 881 66 16 0 17 27 17 435 l0 435 -1000 0 c-956 0 -1003 1 -1083 20
-266 62 -744 94 -1082 73z m638 -1037 c309 -80 501 -272 584 -582 24 -90 26
-116 27 -284 0 -173 -2 -191 -27 -273 -48 -157 -116 -267 -225 -368 -178 -164
-403 -240 -711 -240 -331 1 -561 79 -727 246 -163 166 -238 435 -205 738 42
383 236 633 576 743 133 42 230 54 430 50 153 -3 195 -8 278 -30z m-478 -4711
c446 -30 851 -60 900 -66 280 -34 424 -98 479 -212 33 -67 41 -136 26 -217
-44 -241 -267 -400 -655 -465 -182 -30 -267 -36 -596 -42 -631 -11 -967 43
-1185 189 -112 75 -165 153 -185 276 -25 153 42 327 209 535 l54 69 72 -7 c39
-3 436 -30 881 -60z"/>
<path d="M18767 8028 c-15 -83 -108 -791 -104 -794 2 -2 129 -48 283 -102 153
-54 293 -106 311 -115 17 -9 42 -33 55 -54 l23 -38 3 -1575 c2 -866 0 -1594
-3 -1617 -8 -53 -43 -88 -103 -102 -38 -9 -539 -81 -564 -81 -5 0 -8 -180 -8
-400 l0 -400 1450 0 1450 0 0 400 c0 220 -2 400 -4 400 -3 0 -136 18 -297 40
-285 40 -331 51 -360 86 -12 15 -14 327 -17 2201 l-2 2183 -1054 0 -1054 0 -5
-32z"/>
</g>
</svg>
