<?xml version="1.0" standalone="no"?>
<!DOCTYPE svg PUBLIC "-//W3C//DTD SVG 20010904//EN"
 "http://www.w3.org/TR/2001/REC-SVG-20010904/DTD/svg10.dtd">
<svg version="1.0" xmlns="http://www.w3.org/2000/svg"
 width="1920.000000pt" height="1080.000000pt" viewBox="0 0 920.000000 1080.000000"
 preserveAspectRatio="xMidYMid meet">

<g transform="translate(0.000000,1080.000000) scale(0.100000,-0.100000)"
fill="#FFF" stroke="none">
<path d="M5470 7258 c-19 -11 -107 -62 -195 -113 -197 -113 -588 -339 -750
-432 -66 -38 -259 -150 -430 -248 -170 -98 -321 -185 -335 -193 l-25 -14 3
-334 c1 -184 4 -334 6 -334 4 0 217 122 481 276 348 202 699 404 702 404 1 0
3 -157 3 -348 l0 -349 -122 -70 c-134 -76 -881 -506 -992 -571 -68 -40 -69
-40 -45 -55 73 -46 549 -317 557 -317 5 0 150 81 323 181 173 99 437 251 586
337 l273 157 0 1023 c0 562 -1 1022 -2 1022 -2 0 -19 -10 -38 -22z"/>
<path d="M6408 7113 l-288 -166 0 -334 c0 -183 3 -333 6 -333 9 0 546 311 562
324 9 9 12 86 10 343 l-3 331 -287 -165z"/>
<path d="M6590 5846 c-58 -34 -187 -109 -287 -166 l-183 -104 -2 -344 -3 -344
-405 -234 c-223 -128 -489 -282 -592 -341 l-188 -108 0 -337 0 -337 58 33 c31
18 190 109 352 203 162 94 531 307 820 473 289 166 528 305 533 309 4 4 6 311
5 683 l-3 677 -105 -63z"/>
<path d="M7682 5838 c-9 -9 -12 -110 -12 -427 0 -229 4 -422 9 -429 5 -9 25
-12 57 -10 l49 3 -2 325 -3 325 36 -80 c19 -44 38 -87 41 -95 9 -26 152 -365
183 -433 21 -47 22 -48 62 -45 39 3 40 4 73 78 18 41 50 116 70 165 21 50 63
151 95 225 32 74 62 146 66 160 6 16 11 -97 14 -300 l5 -325 50 0 50 0 0 435
0 435 -64 0 c-67 0 -67 0 -89 -55 -43 -109 -124 -302 -168 -402 -19 -43 -34
-82 -34 -89 0 -6 -11 -32 -24 -58 -13 -25 -29 -59 -36 -76 l-12 -30 -27 70
c-16 39 -70 169 -121 290 -51 121 -104 249 -119 285 l-26 65 -55 3 c-34 2 -60
-2 -68 -10z m15 -640 c-1 -117 -2 -22 -2 212 0 234 1 329 2 213 2 -117 2 -309
0 -425z m168 467 c25 -60 87 -210 138 -332 50 -123 94 -223 97 -223 3 0 14 21
24 48 20 48 162 387 218 520 17 40 33 71 35 69 2 -2 -47 -123 -108 -268 -61
-145 -122 -292 -136 -326 -14 -35 -29 -63 -33 -63 -8 0 -311 720 -309 736 1
11 12 -14 74 -161z m538 130 c-9 -19 -18 -33 -20 -32 -5 6 21 67 29 67 4 0 0
-16 -9 -35z m104 -597 c-1 -117 -2 -22 -2 212 0 234 1 329 2 213 2 -117 2
-309 0 -425z m-65 180 c-1 -194 -5 -362 -7 -373 -2 -11 -2 141 -2 337 1 196 1
356 1 355 -2 -3 -153 -360 -216 -511 -45 -108 -83 -189 -76 -159 7 27 293 703
298 703 3 0 4 -159 2 -352z m-627 230 c27 -62 92 -216 145 -343 54 -126 100
-241 104 -255 7 -30 -19 24 -69 145 -21 50 -64 151 -95 225 -32 74 -72 171
-90 215 -18 44 -39 87 -46 96 -16 18 -18 29 -5 29 5 0 30 -51 56 -112z m-48
-450 c-1 -95 -3 -20 -3 167 0 187 2 265 3 173 2 -92 2 -245 0 -340z"/>
<path d="M9210 5804 c-11 -25 -20 -49 -20 -52 0 -6 -22 -64 -61 -157 -4 -11
-11 -31 -15 -45 -3 -14 -15 -43 -25 -65 -10 -22 -30 -71 -43 -110 -14 -38 -37
-101 -51 -140 -51 -132 -86 -230 -88 -245 -2 -12 10 -15 52 -15 l54 0 30 80
c16 44 35 95 41 113 l11 32 180 0 181 0 14 -37 c7 -21 25 -72 40 -113 l25 -75
49 -3 c63 -4 72 5 51 54 -9 22 -27 68 -40 104 -13 36 -38 101 -55 145 -17 44
-35 91 -40 105 -5 14 -21 57 -35 95 -23 62 -69 183 -112 299 -26 72 -30 76
-79 76 -44 0 -45 -1 -64 -46z m25 -4 c-4 -12 -9 -19 -12 -17 -3 3 -2 15 2 27
4 12 9 19 12 17 3 -3 2 -15 -2 -27z m200 -285 c154 -405 195 -518 191 -522 -4
-5 2 -20 -167 427 -78 206 -143 384 -146 395 l-4 20 10 -20 c5 -11 57 -146
116 -300z m-356 -126 c-131 -347 -158 -415 -159 -398 0 7 208 561 267 712 14
37 28 65 30 63 2 -2 -60 -172 -138 -377z m230 277 c12 -32 20 -61 17 -63 -2
-2 -14 25 -27 60 l-23 65 -59 -157 c-102 -275 -109 -292 -113 -288 -3 3 96
278 155 431 14 36 22 28 50 -48z m11 -98 c20 -57 51 -140 68 -185 l31 -83
-144 0 -144 0 26 68 c14 37 42 114 63 172 48 133 51 142 57 136 3 -3 22 -51
43 -108z m74 -133 c30 -81 51 -144 46 -139 -5 5 -18 34 -29 64 -11 30 -33 91
-50 135 -29 76 -37 105 -26 93 3 -3 30 -71 59 -153z m91 -245 c7 -19 26 -72
43 -117 17 -46 28 -83 24 -83 -4 0 -25 52 -47 115 l-40 115 -190 -2 -190 -3
-40 -112 c-22 -62 -43 -113 -46 -113 -4 0 11 48 32 108 22 59 42 113 44 120 4
10 49 12 201 10 l197 -3 12 -35z"/>
<path d="M9864 5836 c-3 -8 -4 -29 -2 -48 l3 -33 142 -3 143 -3 2 -387 3 -387
50 0 50 0 3 388 2 387 134 0 c149 0 160 4 154 62 l-3 33 -338 3 c-284 2 -338
0 -343 -12z m159 -58 l142 -3 0 -393 0 -392 -2 390 -3 390 -145 0 -145 0 1 33
c2 29 2 30 6 5 l4 -27 142 -3z m507 22 l0 -29 -142 -3 -143 -3 -5 -390 -5
-390 0 395 0 395 143 3 142 3 0 24 c0 14 2 25 5 25 3 0 5 -13 5 -30z"/>
<path d="M10925 5838 c-3 -7 -4 -204 -3 -438 l3 -425 280 0 280 0 3 33 c6 61
3 62 -239 62 l-219 0 0 150 0 150 189 0 c209 0 215 2 209 62 l-3 33 -197 3
-198 2 0 140 0 140 219 0 c242 0 245 1 239 62 l-3 33 -278 3 c-217 2 -279 0
-282 -10z m25 -428 c0 -273 -3 -420 -10 -420 -7 0 -10 147 -10 420 0 273 3
420 10 420 7 0 10 -147 10 -420z m520 390 l0 -30 -225 0 -225 0 -3 -162 -3
-163 -2 168 -2 167 225 0 225 0 0 25 c0 14 2 25 5 25 3 0 5 -13 5 -30z m-60
-380 l0 -30 -195 0 -195 0 0 -170 0 -170 225 0 225 0 -1 -32 c-2 -31 -2 -31
-6 -5 l-4 27 -225 0 -224 0 0 180 0 180 195 0 195 0 0 25 c0 14 2 25 5 25 3 0
5 -13 5 -30z"/>
<path d="M11875 5838 c-3 -7 -4 -204 -3 -438 l3 -425 55 0 55 0 3 173 2 172
105 0 104 0 17 -32 c9 -18 36 -65 59 -104 24 -39 52 -86 62 -105 63 -112 61
-110 117 -107 40 2 51 7 50 19 -1 14 -104 197 -170 301 -29 46 -30 55 -3 63
36 12 99 76 121 124 26 57 28 148 3 209 -21 51 -102 127 -153 143 -56 19 -421
24 -427 7z m25 -428 c0 -273 -3 -420 -10 -420 -7 0 -10 147 -10 420 0 273 3
420 10 420 7 0 10 -147 10 -420z m347 414 c-3 -3 -12 -4 -19 -1 -8 3 -5 6 6 6
11 1 17 -2 13 -5z m156 -83 c44 -48 52 -75 52 -161 -1 -73 -24 -128 -72 -170
l-28 -25 26 30 c49 55 63 95 63 170 0 83 -23 136 -81 185 -21 18 -29 27 -17
22 11 -6 37 -29 57 -51z m-330 32 l-103 -4 -2 -187 -3 -187 -2 180 c-2 98 -1
185 1 192 4 10 32 12 108 11 l103 -2 -102 -3z m218 -50 c49 -31 64 -64 64
-143 0 -79 -17 -110 -75 -140 -33 -17 -59 -20 -165 -20 l-125 0 0 166 0 166
133 -4 c115 -3 136 -6 168 -25z m43 -8 c63 -62 70 -179 16 -248 -23 -30 -88
-72 -97 -63 -3 3 5 10 18 15 39 14 88 72 100 115 19 70 -14 165 -69 199 -15 9
-22 17 -15 17 7 0 28 -16 47 -35z m-99 -315 c-3 -5 -11 -10 -16 -10 -6 0 -7 5
-4 10 3 6 11 10 16 10 6 0 7 -4 4 -10z m103 -23 c-9 -7 -24 -17 -35 -23 -17
-10 -16 -13 8 -50 26 -39 102 -167 152 -256 15 -26 27 -50 27 -55 0 -4 -47 72
-105 169 -58 97 -105 181 -105 186 0 4 15 16 33 25 39 19 48 21 25 4z m-25
-210 c54 -93 97 -170 95 -172 -2 -3 -48 72 -102 165 l-99 170 -118 0 -119 0
-3 -172 -3 -173 -2 178 -2 178 127 -3 127 -3 99 -168z"/>
<path d="M12925 5838 c-3 -7 -4 -204 -3 -438 l3 -425 50 0 50 0 0 435 0 435
-48 3 c-32 2 -49 -1 -52 -10z m22 -640 c-1 -117 -2 -22 -2 212 0 234 1 329 2
213 2 -117 2 -309 0 -425z m70 0 c-1 -117 -2 -22 -2 212 0 234 1 329 2 213 2
-117 2 -309 0 -425z"/>
<path d="M13734 5813 c-9 -21 -23 -54 -31 -73 -9 -19 -29 -73 -46 -120 -55
-155 -58 -165 -72 -195 -8 -16 -28 -68 -45 -115 -39 -104 -63 -168 -91 -240
-34 -87 -32 -94 22 -98 59 -4 55 -9 120 166 l24 62 180 0 180 0 25 -72 c13
-40 32 -92 43 -115 17 -41 20 -43 63 -43 57 0 62 13 34 87 -66 178 -158 422
-190 503 -12 30 -35 93 -51 140 -16 47 -38 100 -49 118 -17 28 -25 32 -60 32
-37 0 -42 -3 -56 -37z m-69 -243 c-53 -140 -98 -256 -101 -259 -9 -8 4 32 41
129 18 47 58 154 90 238 32 84 59 151 61 149 2 -2 -39 -118 -91 -257z m199
184 c15 -41 26 -78 23 -80 -2 -2 -18 32 -35 76 -16 44 -27 80 -23 80 3 0 19
-34 35 -76z m-59 -26 c2 -7 40 -109 83 -225 43 -117 75 -213 72 -213 -4 0 -14
19 -22 43 -56 163 -143 386 -148 380 -7 -8 -29 -66 -105 -278 -26 -71 -52
-134 -57 -140 -5 -5 6 33 25 85 137 377 140 382 152 348z m38 -178 c19 -52 46
-126 61 -165 14 -38 26 -73 26 -77 0 -5 -63 -8 -140 -8 -77 0 -140 2 -140 4 0
2 9 26 21 53 11 26 22 55 24 63 3 8 11 33 19 55 42 114 76 209 77 214 0 3 4
-5 9 -19 4 -14 24 -68 43 -120z m101 -10 c20 -52 170 -451 201 -535 5 -13 5
-17 -2 -10 -10 10 -254 650 -252 663 1 10 24 -43 53 -118z m-440 -399 c-32
-83 -59 -149 -62 -147 -4 5 13 54 75 213 20 51 38 91 40 89 2 -2 -22 -71 -53
-155z m526 -26 c23 -64 40 -118 37 -121 -3 -3 -15 23 -26 58 -12 35 -30 86
-40 113 l-17 50 -190 3 -189 2 -39 -110 c-21 -61 -42 -113 -47 -116 -7 -4 28
99 70 209 l11 27 194 0 194 0 42 -115z"/>
<path d="M14535 5838 c-3 -7 -4 -204 -3 -438 l3 -425 260 0 260 0 3 33 c6 60
1 62 -219 62 l-199 0 -2 388 -3 387 -48 3 c-32 2 -49 -1 -52 -10z m12 -640
c-1 -117 -2 -22 -2 212 0 234 1 329 2 213 2 -117 2 -309 0 -425z m283 -148
l210 0 -1 -32 c-2 -30 -2 -31 -6 -6 l-4 28 -207 2 -207 3 0 393 0 392 2 -390
3 -390 210 0z"/>
<path d="M16034 5837 c-3 -8 -4 -158 -2 -333 3 -312 4 -320 27 -372 34 -75
106 -136 187 -158 129 -34 267 -1 345 83 79 86 80 88 77 460 l-3 328 -50 0
-50 0 -5 -325 c-5 -324 -5 -325 -30 -370 -43 -78 -152 -111 -259 -80 -35 10
-84 49 -104 85 -8 14 -14 127 -17 355 l-5 335 -53 3 c-38 2 -54 -1 -58 -11z
m54 -709 c21 -43 58 -83 108 -116 10 -7 6 -6 -11 2 -37 18 -87 69 -111 116
-17 32 -19 63 -20 370 l0 335 5 -330 c6 -319 7 -332 29 -377z m39 235 c-1 -87
-3 -16 -3 157 0 173 2 244 3 158 2 -87 2 -229 0 -315z m432 -209 c-20 -43 -70
-94 -91 -94 -6 0 4 10 22 23 18 12 43 40 54 62 20 37 21 60 26 365 l5 325 3
-319 c2 -306 1 -321 -19 -362z m99 359 c-4 -357 -7 -375 -76 -446 -33 -35
-112 -85 -112 -72 0 2 18 14 39 24 50 26 104 90 119 140 8 25 12 144 12 355 0
216 3 316 11 316 7 0 9 -98 7 -317z m-481 -395 c9 -10 14 -21 10 -24 -7 -7
-57 78 -57 97 1 8 8 -2 16 -21 8 -19 22 -42 31 -52z m82 -65 c2 -2 0 -3 -6 -3
-6 0 -21 9 -34 21 l-24 20 30 -17 c17 -10 32 -19 34 -21z m104 -20 c-7 -2 -19
-2 -25 0 -7 3 -2 5 12 5 14 0 19 -2 13 -5z m-103 -43 c0 -5 -2 -10 -4 -10 -3
0 -8 5 -11 10 -3 6 -1 10 4 10 6 0 11 -4 11 -10z m47 -6 c-3 -3 -12 -4 -19 -1
-8 3 -5 6 6 6 11 1 17 -2 13 -5z m120 0 c-3 -3 -12 -4 -19 -1 -8 3 -5 6 6 6
11 1 17 -2 13 -5z"/>
<path d="M17125 5838 c-3 -7 -4 -204 -3 -438 l3 -425 50 0 50 0 0 435 0 435
-48 3 c-32 2 -49 -1 -52 -10z m25 -428 c0 -273 -3 -420 -10 -420 -7 0 -10 147
-10 420 0 273 3 420 10 420 7 0 10 -147 10 -420z m67 -212 c-1 -117 -2 -22 -2
212 0 234 1 329 2 213 2 -117 2 -309 0 -425z"/>
<path d="M15357 5404 c-11 -12 -8 -69 5 -82 8 -8 56 -12 149 -12 152 0 163 4
157 62 l-3 33 -151 3 c-82 1 -153 -1 -157 -4z m159 -64 c85 0 134 -4 134 -10
0 -7 -48 -10 -137 -8 l-138 3 -1 35 c-1 26 -1 28 3 8 l4 -28 135 0z m131 18
c-3 -8 -6 -5 -6 6 -1 11 2 17 5 13 3 -3 4 -12 1 -19z"/>
</g>
</svg>
