<?xml version="1.0" standalone="no"?>
<!DOCTYPE svg PUBLIC "-//W3C//DTD SVG 20010904//EN"
 "http://www.w3.org/TR/2001/REC-SVG-20010904/DTD/svg10.dtd">
<svg version="1.0" xmlns="http://www.w3.org/2000/svg"
 width="290.000000pt" height="174.000000pt" viewBox="0 0 290.000000 174.000000"
 preserveAspectRatio="xMidYMid meet">

<g transform="translate(0.000000,174.000000) scale(0.100000,-0.100000)"
fill="#fff" stroke="none">
<path d="M2149 1653 c-13 -16 -12 -17 4 -4 9 7 17 15 17 17 0 8 -8 3 -21 -13z"/>
<path d="M1997 1458 c-75 -95 -194 -252 -265 -348 -70 -96 -132 -175 -137
-174 -5 0 -65 78 -133 172 -101 141 -128 172 -148 172 -13 0 -24 -2 -24 -5 0
-3 59 -87 131 -187 72 -99 133 -187 136 -194 2 -7 -63 -105 -146 -218 -145
-199 -149 -206 -121 -206 26 0 42 19 166 190 76 104 141 187 145 182 3 -4 66
-89 139 -190 119 -165 134 -182 161 -182 l29 0 -78 108 c-113 154 -207 285
-216 300 -4 7 83 143 240 370 136 196 251 363 257 370 5 6 7 12 5 12 -3 0 -66
-78 -141 -172z"/>
<path d="M0 876 l0 -406 25 0 25 0 0 370 c0 204 3 370 8 370 4 0 111 -152 237
-337 208 -304 504 -715 542 -753 9 -8 -161 248 -376 570 -383 572 -393 585
-426 588 l-35 3 0 -405z"/>
<path d="M690 875 l0 -405 275 0 c268 0 275 1 275 20 0 19 -8 20 -252 22
l-253 3 -3 178 -2 177 235 0 c228 0 235 1 235 20 0 19 -8 20 -232 22 l-233 3
-3 163 -2 162 250 0 c243 0 250 1 250 20 0 20 -7 20 -270 20 l-270 0 0 -405z"/>
<path d="M1950 1260 c0 -19 7 -20 145 -20 l145 0 0 -385 0 -385 25 0 25 0 0
385 0 385 140 0 c133 0 140 1 140 20 0 20 -7 20 -310 20 -303 0 -310 0 -310
-20z"/>
<path d="M2800 697 c-27 -14 -38 -53 -20 -71 6 -6 28 -16 48 -21 47 -14 53
-48 8 -53 -16 -2 -33 1 -39 7 -6 6 -18 11 -26 11 -12 0 -10 -5 6 -22 25 -24
73 -28 98 -8 10 8 15 25 13 44 -3 26 -9 32 -40 41 -43 12 -63 29 -54 44 9 15
59 14 74 -1 6 -6 15 -8 19 -4 9 9 -33 46 -51 46 -6 0 -22 -6 -36 -13z"/>
<path d="M2698 628 c-3 -67 -5 -73 -25 -76 -13 -2 -23 1 -23 7 0 6 -7 11 -16
11 -22 0 -12 -23 15 -36 54 -27 81 8 81 107 0 45 -3 59 -15 59 -11 0 -15 -17
-17 -72z"/>
<path d="M2555 551 c-7 -12 12 -24 25 -16 11 7 4 25 -10 25 -5 0 -11 -4 -15
-9z"/>
</g>
</svg>
